# xmcd CD database file
#
# Track frame offsets:
#	150
#	14675
#	27609
#	40683
#	55480
#	68165
#	82272
#	96101
#	105721
#	117202
#	132358
#	144680
#	157674
#	169362
#	186842
#	197517
#	211343
#	223050
#	233726
#	246940
#	260468
#	270871
#	282658
#	297614
#	311064
#	323370
#	332811
#
# Disc length: 4634 seconds
#
# Revision: 0
# Processed by: cddbd v1.5.2PL0 Copyright (c) Steve Scherf et al.
# Submitted via: CDex 1.51
#
DISCID=a012181b
DTITLE=Django Reinhardt - Plays Django Reinhardt (Disk 4, 1947)
DYEAR=2007
DGENRE=Jazz
TTITLE0=Del Salle
TTITLE1=Blues for Barclay
TTITLE2=Folie a Amphion
TTITLE3=Vette
TTITLE4=Swing 48
TTITLE5=Django's Blues
TTITLE6=Swing Guitars
TTITLE7=Babik
TTITLE8=This Kind Of Friend
TTITLE9=Nuages
TTITLE10=Blues Chair
TTITLE11=Minor Swing
TTITLE12=Swing 39
TTITLE13=Django's Dream
TTITLE14=Feerie
TTITLE15=Sweet Chorus
TTITLE16=Swing Dynamique
TTITLE17=Moppin' The Bride
TTITLE18=Mano
TTITLE19=Gipsy With a Song
TTITLE20=Peche a la Mouche
TTITLE21=Belleville
TTITLE22=Melodie au Crepuscule
TTITLE23=Stop
TTITLE24=Place de Brouckere
TTITLE25=Improvisation No 45 (47)
TTITLE26=Diminishing
EXTD=YEAR: 2007
EXTT0=
EXTT1=
EXTT2=
EXTT3=
EXTT4=
EXTT5=
EXTT6=
EXTT7=
EXTT8=
EXTT9=
EXTT10=
EXTT11=
EXTT12=
EXTT13=
EXTT14=
EXTT15=
EXTT16=
EXTT17=
EXTT18=
EXTT19=
EXTT20=
EXTT21=
EXTT22=
EXTT23=
EXTT24=
EXTT25=
EXTT26=
PLAYORDER=
